<svg width="21" height="15" viewBox="0 0 21 15" fill="none" xmlns="http://www.w3.org/2000/svg">
<g clip-path="url(#clip0_18_2447)">
<path d="M12.8156 7.64219C12.8156 8.80291 12.5728 9.83667 12.0873 10.7435C11.6018 11.6503 10.9099 12.359 10.0114 12.8696C9.113 13.3802 8.08343 13.6355 6.92271 13.6355C6.09124 13.6355 5.29604 13.4737 4.53711 13.15C3.77818 12.8263 3.12528 12.3911 2.5784 11.8442C2.03153 11.2973 1.59626 10.6444 1.2726 9.8855C0.94894 9.12657 0.787109 8.33137 0.787109 7.4999C0.787109 6.66842 0.94894 5.87322 1.2726 5.11429C1.59626 4.35536 2.03153 3.70246 2.5784 3.15559C3.12528 2.60871 3.77818 2.17344 4.53711 1.84978C5.29604 1.52612 6.09124 1.36429 6.92271 1.36429C8.51869 1.36429 9.88867 1.90001 11.0326 2.97144L9.36691 4.57021C8.71401 3.93963 7.89927 3.62434 6.92271 3.62434C6.23633 3.62434 5.60156 3.79733 5.01841 4.14331C4.43527 4.48929 3.97349 4.95944 3.63309 5.55375C3.29269 6.14805 3.12249 6.79677 3.12249 7.4999C3.12249 8.20302 3.29269 8.85174 3.63309 9.44604C3.97349 10.0404 4.43527 10.5105 5.01841 10.8565C5.60156 11.2025 6.23633 11.3755 6.92271 11.3755C7.38588 11.3755 7.81138 11.3113 8.19922 11.1829C8.58705 11.0546 8.90653 10.8941 9.15765 10.7016C9.40876 10.5091 9.62779 10.2901 9.81473 10.0445C10.0017 9.799 10.1384 9.56742 10.2249 9.34978C10.3114 9.13215 10.3714 8.92568 10.4049 8.73036H6.92271V6.62099H12.7151C12.7821 6.97255 12.8156 7.31295 12.8156 7.64219ZM20.0728 6.62099V8.3788H18.3234V10.1282H16.5656V8.3788H14.8161V6.62099H16.5656V4.87155H18.3234V6.62099H20.0728Z" fill="white"/>
</g>
<defs>
<clipPath id="clip0_18_2447">
<rect width="19.3" height="15" fill="white" transform="matrix(1 0 0 -1 0.780029 15)"/>
</clipPath>
</defs>
</svg>
