<svg width="14" height="15" viewBox="0 0 14 15" fill="none" xmlns="http://www.w3.org/2000/svg">
<g clip-path="url(#clip0_18_2450)">
<path d="M8.91507 9.01496C8.91507 9.01496 9.01971 8.91033 9.22897 8.70107C9.43823 8.4918 9.54286 8.09141 9.54286 7.4999C9.54286 6.90838 9.3336 6.40336 8.91507 5.98483C8.49655 5.5663 7.99152 5.35704 7.40001 5.35704C6.80849 5.35704 6.30347 5.5663 5.88494 5.98483C5.46641 6.40336 5.25715 6.90838 5.25715 7.4999C5.25715 8.09141 5.46641 8.59644 5.88494 9.01496C6.30347 9.43349 6.80849 9.64275 7.40001 9.64275C7.99152 9.64275 8.49655 9.43349 8.91507 9.01496ZM9.73539 5.16452C9.73539 5.16452 9.89582 5.32495 10.2167 5.64582C10.5376 5.96669 10.698 6.58472 10.698 7.4999C10.698 8.41507 10.3771 9.19353 9.73539 9.83528C9.09365 10.477 8.31519 10.7979 7.40001 10.7979C6.48483 10.7979 5.70637 10.477 5.06463 9.83528C4.42289 9.19353 4.10202 8.41507 4.10202 7.4999C4.10202 6.58472 4.42289 5.80626 5.06463 5.16452C5.70637 4.52277 6.48483 4.2019 7.40001 4.2019C8.31519 4.2019 9.09365 4.52277 9.73539 5.16452ZM11.376 3.52389C11.376 3.52389 11.4137 3.56156 11.489 3.63689C11.5643 3.71223 11.602 3.85592 11.602 4.06798C11.602 4.28003 11.5267 4.46139 11.376 4.61206C11.2253 4.76273 11.044 4.83807 10.8319 4.83807C10.6199 4.83807 10.4385 4.76273 10.2878 4.61206C10.1372 4.46139 10.0618 4.28003 10.0618 4.06798C10.0618 3.85592 10.1372 3.67456 10.2878 3.52389C10.4385 3.37322 10.6199 3.29789 10.8319 3.29789C11.044 3.29789 11.2253 3.37322 11.376 3.52389ZM8.04035 2.22227C8.04035 2.22227 7.94339 2.22297 7.74948 2.22437C7.55556 2.22576 7.43907 2.22646 7.40001 2.22646C7.36094 2.22646 7.1475 2.22506 6.75966 2.22227C6.37183 2.21948 6.07746 2.21948 5.87657 2.22227C5.67568 2.22506 5.40642 2.23343 5.06881 2.24739C4.7312 2.26134 4.44381 2.28924 4.20665 2.33109C3.96948 2.37294 3.76998 2.42456 3.60815 2.48594C3.32914 2.59755 3.0836 2.75938 2.87155 2.97144C2.65949 3.18349 2.49766 3.42903 2.38606 3.70804C2.32467 3.86987 2.27305 4.06937 2.2312 4.30654C2.18935 4.5437 2.16145 4.83109 2.1475 5.1687C2.13354 5.50631 2.12517 5.77557 2.12238 5.97646C2.11959 6.17735 2.11959 6.47171 2.12238 6.85955C2.12517 7.24738 2.12657 7.46083 2.12657 7.4999C2.12657 7.53896 2.12517 7.75241 2.12238 8.14024C2.11959 8.52808 2.11959 8.82244 2.12238 9.02333C2.12517 9.22423 2.13354 9.49348 2.1475 9.83109C2.16145 10.1687 2.18935 10.4561 2.2312 10.6933C2.27305 10.9304 2.32467 11.1299 2.38606 11.2917C2.49766 11.5708 2.65949 11.8163 2.87155 12.0284C3.0836 12.2404 3.32914 12.4022 3.60815 12.5138C3.76998 12.5752 3.96948 12.6268 4.20665 12.6687C4.44381 12.7106 4.7312 12.7385 5.06881 12.7524C5.40642 12.7664 5.67568 12.7747 5.87657 12.7775C6.07746 12.7803 6.37183 12.7803 6.75966 12.7775C7.1475 12.7747 7.36094 12.7733 7.40001 12.7733C7.43907 12.7733 7.65252 12.7747 8.04035 12.7775C8.42819 12.7803 8.72255 12.7803 8.92344 12.7775C9.12434 12.7747 9.39359 12.7664 9.7312 12.7524C10.0688 12.7385 10.3562 12.7106 10.5934 12.6687C10.8305 12.6268 11.03 12.5752 11.1919 12.5138C11.4709 12.4022 11.7164 12.2404 11.9285 12.0284C12.1405 11.8163 12.3024 11.5708 12.414 11.2917C12.4753 11.1299 12.527 10.9304 12.5688 10.6933C12.6107 10.4561 12.6386 10.1687 12.6525 9.83109C12.6665 9.49348 12.6748 9.22423 12.6776 9.02333C12.6804 8.82244 12.6804 8.52808 12.6776 8.14024C12.6748 7.75241 12.6734 7.53896 12.6734 7.4999C12.6734 7.46083 12.6748 7.24738 12.6776 6.85955C12.6804 6.47171 12.6804 6.17735 12.6776 5.97646C12.6748 5.77557 12.6665 5.50631 12.6525 5.1687C12.6386 4.83109 12.6107 4.5437 12.5688 4.30654C12.527 4.06937 12.4753 3.86987 12.414 3.70804C12.3024 3.42903 12.1405 3.18349 11.9285 2.97144C11.7164 2.75938 11.4709 2.59755 11.1919 2.48594C11.03 2.42456 10.8305 2.37294 10.5934 2.33109C10.3562 2.28924 10.0688 2.26134 9.7312 2.24739C9.39359 2.23343 9.12434 2.22506 8.92344 2.22227C8.72255 2.21948 8.42819 2.21948 8.04035 2.22227ZM13.7867 4.84644C13.8146 5.33751 13.8286 6.22199 13.8286 7.4999C13.8286 8.7778 13.8146 9.66228 13.7867 10.1534C13.7309 11.3141 13.3849 12.2125 12.7488 12.8487C12.1126 13.4848 11.2142 13.8308 10.0535 13.8866C9.5624 13.9145 8.67791 13.9285 7.40001 13.9285C6.12211 13.9285 5.23762 13.9145 4.74655 13.8866C3.58583 13.8308 2.6874 13.4848 2.05123 12.8487C1.41507 12.2125 1.06909 11.3141 1.01329 10.1534C0.985386 9.66228 0.971436 8.7778 0.971436 7.4999C0.971436 6.22199 0.985386 5.33751 1.01329 4.84644C1.06909 3.68572 1.41507 2.78728 2.05123 2.15112C2.6874 1.51496 3.58583 1.16898 4.74655 1.11318C5.23762 1.08528 6.12211 1.07132 7.40001 1.07132C8.67791 1.07132 9.5624 1.08528 10.0535 1.11318C11.2142 1.16898 12.1126 1.51496 12.7488 2.15112C13.3849 2.78728 13.7309 3.68572 13.7867 4.84644Z" fill="white"/>
</g>
<defs>
<clipPath id="clip0_18_2450">
<rect width="12.86" height="15" fill="white" transform="matrix(1 0 0 -1 0.969971 15)"/>
</clipPath>
</defs>
</svg>
