<svg width="14" height="16" viewBox="0 0 14 16" fill="none" xmlns="http://www.w3.org/2000/svg">
<g clip-path="url(#clip0_18_1783)">
<path d="M1.07704 14.4288H3.48776V12.0181H1.07704V14.4288ZM4.02347 14.4288H6.70204V12.0181H4.02347V14.4288ZM1.07704 11.4824H3.48776V8.80382H1.07704V11.4824ZM4.02347 11.4824H6.70204V8.80382H4.02347V11.4824ZM1.07704 8.2681H3.48776V5.85739H1.07704V8.2681ZM7.23776 14.4288H9.91633V12.0181H7.23776V14.4288ZM4.02347 8.2681H6.70204V5.85739H4.02347V8.2681ZM10.452 14.4288H12.8628V12.0181H10.452V14.4288ZM7.23776 11.4824H9.91633V8.80382H7.23776V11.4824ZM4.29133 4.25024V1.83953C4.29133 1.76699 4.26482 1.70421 4.21181 1.65119C4.1588 1.59818 4.09602 1.57167 4.02347 1.57167H3.48776C3.41521 1.57167 3.35243 1.59818 3.29942 1.65119C3.24641 1.70421 3.2199 1.76699 3.2199 1.83953V4.25024C3.2199 4.32279 3.24641 4.38557 3.29942 4.43858C3.35243 4.4916 3.41521 4.5181 3.48776 4.5181H4.02347C4.09602 4.5181 4.1588 4.4916 4.21181 4.43858C4.26482 4.38557 4.29133 4.32279 4.29133 4.25024ZM10.452 11.4824H12.8628V8.80382H10.452V11.4824ZM7.23776 8.2681H9.91633V5.85739H7.23776V8.2681ZM10.452 8.2681H12.8628V5.85739H10.452V8.2681ZM10.7199 4.25024V1.83953C10.7199 1.76699 10.6934 1.70421 10.6404 1.65119C10.5874 1.59818 10.5246 1.57167 10.452 1.57167H9.91633C9.84378 1.57167 9.78101 1.59818 9.72799 1.65119C9.67498 1.70421 9.64847 1.76699 9.64847 1.83953V4.25024C9.64847 4.32279 9.67498 4.38557 9.72799 4.43858C9.78101 4.4916 9.84378 4.5181 9.91633 4.5181H10.452C10.5246 4.5181 10.5874 4.4916 10.6404 4.43858C10.6934 4.38557 10.7199 4.32279 10.7199 4.25024ZM13.9342 3.71453V14.4288C13.9342 14.719 13.8282 14.9701 13.6161 15.1822C13.4041 15.3942 13.1529 15.5002 12.8628 15.5002H1.07704C0.786865 15.5002 0.535749 15.3942 0.323696 15.1822C0.111642 14.9701 0.00561523 14.719 0.00561523 14.4288V3.71453C0.00561523 3.42435 0.111642 3.17324 0.323696 2.96118C0.535749 2.74913 0.786865 2.6431 1.07704 2.6431H2.14847V1.83953C2.14847 1.47123 2.27961 1.15594 2.54189 0.89366C2.80416 0.631383 3.11945 0.500244 3.48776 0.500244H4.02347C4.39178 0.500244 4.70707 0.631383 4.96934 0.89366C5.23162 1.15594 5.36276 1.47123 5.36276 1.83953V2.6431H8.57704V1.83953C8.57704 1.47123 8.70818 1.15594 8.97046 0.89366C9.23274 0.631383 9.54803 0.500244 9.91633 0.500244H10.452C10.8203 0.500244 11.1356 0.631383 11.3979 0.89366C11.6602 1.15594 11.7913 1.47123 11.7913 1.83953V2.6431H12.8628C13.1529 2.6431 13.4041 2.74913 13.6161 2.96118C13.8282 3.17324 13.9342 3.42435 13.9342 3.71453Z" fill="#FFC600"/>
</g>
<defs>
<clipPath id="clip0_18_1783">
<rect width="13.94" height="15" fill="white" transform="matrix(1 0 0 -1 0 15.5002)"/>
</clipPath>
</defs>
</svg>
