<svg width="6" height="16" viewBox="0 0 6 16" fill="none" xmlns="http://www.w3.org/2000/svg">
<path d="M4.78941 8.43331C4.84521 8.48912 4.87312 8.55329 4.87312 8.62584C4.87312 8.69838 4.84521 8.76256 4.78941 8.81836L0.888742 12.719C0.832938 12.7748 0.768764 12.8027 0.696219 12.8027C0.623675 12.8027 0.559501 12.7748 0.503697 12.719L0.0851702 12.3005C0.0293666 12.2447 0.00146484 12.1805 0.00146484 12.108C0.00146484 12.0354 0.0293666 11.9713 0.0851702 11.9155L3.37479 8.62584L0.0851702 5.33622C0.0293666 5.28041 0.00146484 5.21624 0.00146484 5.14369C0.00146484 5.07115 0.0293666 5.00698 0.0851702 4.95117L0.503697 4.53265C0.559501 4.47684 0.623675 4.44894 0.696219 4.44894C0.768764 4.44894 0.832938 4.47684 0.888742 4.53265L4.78941 8.43331Z" fill="#E91E63"/>
</svg>
