<svg width="14" height="11" viewBox="0 0 14 11" fill="none" xmlns="http://www.w3.org/2000/svg">
<path d="M13.6976 1.41521C13.3237 1.96209 12.8717 2.42805 12.3416 2.81309C12.3471 2.89122 12.3499 3.00841 12.3499 3.16466C12.3499 3.8901 12.2439 4.61415 12.0318 5.33681C11.8198 6.05947 11.4975 6.75283 11.065 7.41689C10.6326 8.08095 10.1178 8.66828 9.52068 9.17889C8.92358 9.68949 8.20372 10.0969 7.36108 10.401C6.51845 10.7051 5.61722 10.8572 4.6574 10.8572C3.14512 10.8572 1.7612 10.4526 0.505615 9.64345C0.700928 9.66577 0.918562 9.67693 1.15852 9.67693C2.4141 9.67693 3.53296 9.29189 4.5151 8.5218C3.92916 8.51064 3.40461 8.33067 2.94144 7.9819C2.47827 7.63313 2.16019 7.18809 1.9872 6.6468C2.17135 6.6747 2.34155 6.68865 2.4978 6.68865C2.73776 6.68865 2.97492 6.65796 3.2093 6.59658C2.5843 6.46823 2.06672 6.15712 1.65656 5.66326C1.24641 5.1694 1.04133 4.59602 1.04133 3.94312V3.90963C1.42079 4.12169 1.82816 4.23608 2.26343 4.25283C1.89512 4.00729 1.60216 3.68642 1.38452 3.29021C1.16689 2.89401 1.05807 2.46432 1.05807 2.00115C1.05807 1.51008 1.18084 1.05528 1.42637 0.636754C2.1016 1.46823 2.9233 2.13369 3.8915 2.63313C4.85969 3.13257 5.89624 3.41019 7.00115 3.46599C6.95651 3.25394 6.93419 3.04747 6.93419 2.84658C6.93419 2.09881 7.19786 1.46125 7.7252 0.933908C8.25255 0.406564 8.8901 0.142893 9.63787 0.142893C10.4191 0.142893 11.0776 0.42749 11.6133 0.996687C12.2216 0.879499 12.7936 0.661865 13.3293 0.343785C13.1228 0.985526 12.7266 1.48218 12.1407 1.83374C12.6596 1.77794 13.1786 1.63843 13.6976 1.41521Z" fill="white"/>
</svg>
